<?xml version="1.0" encoding="utf-8"?>
<!-- Generator: Adobe Illustrator 23.0.6, SVG Export Plug-In . SVG Version: 6.00 Build 0)  -->
<svg version="1.1" id="Layer_1" xmlns="http://www.w3.org/2000/svg" xmlns:xlink="http://www.w3.org/1999/xlink" x="0px" y="0px"
	 width="200px" height="70px" viewBox="0 0 200 70" style="enable-background:new 0 0 200 70;" xml:space="preserve">
<style type="text/css">
	.st0{fill:#005193;}
	.st1{fill:#76A01F;}
	.st2{fill:#6E6E6E;}
</style>
<g>
	<g>
		<path class="st0" d="M107.96,30.22c-1.53,1.56-3.65,2.53-5.99,2.53c-4.68,0-8.47-3.86-8.47-8.63c0-4.76,3.79-8.63,8.47-8.63
			c2.34,0,4.46,0.97,5.99,2.53l3.55-3.66c-2.45-2.48-5.82-4.01-9.54-4.01c-7.47,0-13.52,6.16-13.52,13.77
			c0,7.6,6.05,13.77,13.52,13.77c3.74,0,7.13-1.55,9.58-4.05L107.96,30.22z"/>
	</g>
	<g>
		<path class="st0" d="M94.3,10.92c0,0,7.78-5.05,16.15,0.69c0,0-10.65-8.73-22.41,1.34l0.41-2.11c0,0,0.8-2.46-1.14-2.5h-5.19v0.6
			c0,0,2.04-0.18,1.38,2.39l-3.98,14.89c0,0-0.8,2.39,1.31,3.03h7.02C87.86,29.24,83.2,18.05,94.3,10.92"/>
	</g>
	<g>
		<path class="st1" d="M87.83,7.13c1.37,0,2.49-1.13,2.49-2.53c0-1.4-1.11-2.53-2.49-2.53c-1.37,0-2.49,1.13-2.49,2.53
			C85.34,6,86.45,7.13,87.83,7.13"/>
	</g>
	<g>
		<path class="st1" d="M105.14,27.14c-0.76,0.77-1.81,1.25-2.97,1.25c-2.32,0-4.19-1.91-4.19-4.27c0-2.36,1.88-4.27,4.19-4.27
			c1.16,0,2.21,0.48,2.97,1.25l1.76-1.81c-1.21-1.23-2.88-1.99-4.72-1.99c-3.7,0-6.69,3.05-6.69,6.81c0,3.76,3,6.81,6.69,6.81
			c1.85,0,3.53-0.77,4.74-2L105.14,27.14z"/>
	</g>
	<g>
		<path class="st0" d="M130.52,52.46h-3.49c0.18-1.07,0.81-1.77,1.77-1.77C129.77,50.69,130.38,51.4,130.52,52.46 M132.77,53.34
			v-0.03c0-2.36-1.25-4.52-3.98-4.52c-2.38,0-4.04,1.96-4.04,4.33v0.03c0,2.55,1.82,4.3,4.27,4.3c1.48,0,2.58-0.59,3.34-1.55
			l-1.33-1.2c-0.64,0.61-1.21,0.85-1.98,0.85c-1.04,0-1.77-0.56-2-1.63h5.69C132.76,53.71,132.77,53.57,132.77,53.34z M123.93,51.26
			v-2.47c-1.37-0.06-2.14,0.68-2.61,1.83v-1.68H119v8.32h2.32V54.2c0-1.99,0.95-2.94,2.49-2.94H123.93z M114.8,54.34
			c0,0.85-0.73,1.46-1.82,1.46c-0.75,0-1.27-0.37-1.27-1.01v-0.03c0-0.75,0.61-1.15,1.6-1.15c0.56,0,1.08,0.12,1.48,0.31V54.34z
			 M117,57.27v-4.83c0-2.25-1.11-3.59-3.65-3.59c-1.39,0-2.27,0.26-3.17,0.67l0.58,1.8c0.75-0.28,1.37-0.45,2.26-0.45
			c1.16,0,1.75,0.54,1.75,1.52v0.14c-0.58-0.2-1.17-0.34-2-0.34c-1.94,0-3.29,0.84-3.29,2.66v0.03c0,1.65,1.27,2.55,2.81,2.55
			c1.13,0,1.91-0.42,2.47-1.06v0.9H117z M108.46,55.94l-1.36-1.4c-0.56,0.54-1.1,0.89-1.88,0.89c-1.27,0-2.07-1.03-2.07-2.3v-0.03
			c0-1.23,0.82-2.27,1.98-2.27c0.82,0,1.34,0.36,1.86,0.92l1.42-1.55c-0.76-0.87-1.72-1.4-3.26-1.4c-2.5,0-4.29,1.96-4.29,4.33v0.03
			c0,2.38,1.8,4.3,4.26,4.3C106.75,57.46,107.67,56.82,108.46,55.94z M197.39,57.27v-2.49h-2.47v2.49H197.39z M190.65,53.12
			c0,1.38-0.9,2.3-1.98,2.3c-1.08,0-2-0.92-2-2.3v-0.03c0-1.4,0.92-2.3,2-2.3c1.08,0,1.98,0.92,1.98,2.3V53.12z M192.93,57.27V45.93
			h-2.32v4.1c-0.55-0.67-1.31-1.24-2.55-1.24c-1.94,0-3.72,1.52-3.72,4.3v0.03c0,2.78,1.82,4.3,3.72,4.3c1.21,0,1.98-0.57,2.55-1.35
			v1.2H192.93z M183.2,56.93v-1.89c-0.34,0.19-0.72,0.3-1.14,0.3c-0.52,0-0.75-0.26-0.75-0.81v-3.56h1.92v-2.02h-1.92v-2.13h-2.32
			v2.13h-0.98v2.02h0.98v3.94c0,1.93,0.96,2.5,2.38,2.5C182.15,57.41,182.71,57.22,183.2,56.93z M177.39,57.27V55.1h-5.32v-8.7
			h-2.35v10.87H177.39z M163.16,56.93v-1.89c-0.34,0.19-0.72,0.3-1.14,0.3c-0.52,0-0.75-0.26-0.75-0.81v-3.56h1.92v-2.02h-1.92
			v-2.13h-2.32v2.13h-0.98v2.02h0.98v3.94c0,1.93,0.96,2.5,2.38,2.5C162.11,57.41,162.67,57.22,163.16,56.93z M157.23,48.95h-2.41
			l-1.85,5.58l-1.83-5.58h-2.46l3.22,8.39h2.11L157.23,48.95z M145.39,50.24c0,0.93-0.69,1.65-1.86,1.65h-1.86v-3.32h1.82
			c1.17,0,1.91,0.57,1.91,1.65V50.24z M147.77,50.19v-0.03c0-2.22-1.54-3.76-4.09-3.76h-4.36v10.87h2.35v-3.26h1.78
			C145.85,54.01,147.77,52.71,147.77,50.19z M97.28,52.46h-3.49c0.18-1.07,0.81-1.77,1.77-1.77C96.53,50.69,97.14,51.4,97.28,52.46z
			 M99.53,53.34v-0.03c0-2.36-1.25-4.52-3.98-4.52c-2.38,0-4.04,1.96-4.04,4.33v0.03c0,2.55,1.82,4.3,4.27,4.3
			c1.48,0,2.58-0.59,3.34-1.55l-1.33-1.2c-0.64,0.61-1.2,0.85-1.98,0.85c-1.04,0-1.77-0.56-2-1.63h5.69
			C99.52,53.71,99.53,53.57,99.53,53.34z M90.4,56.93v-1.89c-0.34,0.19-0.72,0.3-1.14,0.3c-0.52,0-0.75-0.26-0.75-0.81v-3.56h1.92
			v-2.02h-1.92v-2.13h-2.32v2.13h-0.98v2.02h0.98v3.94c0,1.93,0.96,2.5,2.38,2.5C89.35,57.41,89.91,57.22,90.4,56.93z M81.69,54.34
			c0,0.85-0.73,1.46-1.82,1.46c-0.75,0-1.27-0.37-1.27-1.01v-0.03c0-0.75,0.61-1.15,1.6-1.15c0.56,0,1.08,0.12,1.48,0.31V54.34z
			 M83.88,57.27v-4.83c0-2.25-1.11-3.59-3.65-3.59c-1.39,0-2.27,0.26-3.17,0.67l0.58,1.8c0.75-0.28,1.37-0.45,2.26-0.45
			c1.16,0,1.75,0.54,1.75,1.52v0.14c-0.58-0.2-1.17-0.34-2-0.34c-1.94,0-3.29,0.84-3.29,2.66v0.03c0,1.65,1.27,2.55,2.81,2.55
			c1.13,0,1.91-0.42,2.47-1.06v0.9H83.88z M74.84,57.27v-5.42c0-2-1.04-3.06-2.76-3.06c-1.11,0-1.97,0.47-2.68,1.32
			c-0.43-0.84-1.24-1.32-2.3-1.32c-1.17,0-1.88,0.64-2.41,1.34v-1.18h-2.32v8.32h2.32v-4.64c0-1.12,0.53-1.69,1.4-1.69
			c0.87,0,1.36,0.57,1.36,1.69v4.64h2.32v-4.64c0-1.12,0.53-1.69,1.4-1.69s1.36,0.57,1.36,1.69v4.64H74.84z M60.18,57.27v-8.32
			h-2.32v8.32H60.18z M60.24,48.03v-2.1H57.8v2.1H60.24z M55.57,57.27V45.93h-2.32v11.34H55.57z M51.52,55.52l-1.49-1.54
			c-0.84,0.78-1.59,1.27-2.81,1.27c-1.83,0-3.1-1.55-3.1-3.42V51.8c0-1.86,1.3-3.39,3.1-3.39c1.07,0,1.91,0.47,2.73,1.23l1.49-1.76
			c-0.99-0.99-2.2-1.68-4.21-1.68c-3.28,0-5.57,2.53-5.57,5.62v0.03c0,3.12,2.33,5.59,5.48,5.59C49.2,57.46,50.42,56.71,51.52,55.52
			z M33.35,53.16c0,1.23-0.79,2.27-2.12,2.27c-1.28,0-2.15-1.07-2.15-2.3v-0.03c0-1.23,0.79-2.27,2.12-2.27
			c1.28,0,2.15,1.07,2.15,2.3V53.16z M35.64,53.12v-0.03c0-2.39-1.88-4.3-4.41-4.3c-2.55,0-4.44,1.94-4.44,4.33v0.03
			c0,2.39,1.88,4.3,4.41,4.3C33.74,57.46,35.64,55.52,35.64,53.12z M22.82,53.12c0,1.38-0.9,2.3-1.98,2.3c-1.08,0-2-0.92-2-2.3
			v-0.03c0-1.4,0.92-2.3,2-2.3c1.08,0,1.98,0.92,1.98,2.3V53.12z M25.11,57.27V45.93h-2.32v4.1c-0.55-0.67-1.31-1.24-2.55-1.24
			c-1.94,0-3.72,1.52-3.72,4.3v0.03c0,2.78,1.82,4.3,3.72,4.3c1.21,0,1.98-0.57,2.55-1.35v1.2H25.11z M14.88,57.27v-5.39
			c0-1.91-1.02-3.09-2.78-3.09c-1.17,0-1.86,0.64-2.39,1.34v-1.18H7.39v8.32H9.7v-4.64c0-1.12,0.56-1.69,1.45-1.69
			s1.4,0.57,1.4,1.69v4.64H14.88z M4.96,57.27V46.4H2.61v10.87H4.96z"/>
	</g>
	<g>
		<path class="st2" d="M148.73,67.94h-0.86l0.03-0.13l1.51-5.86h0.86l-0.17,0.65c0.04-0.04,0.09-0.08,0.13-0.11
			c0.14-0.12,0.3-0.23,0.46-0.32c0.16-0.09,0.34-0.17,0.52-0.22c0.43-0.13,0.95-0.11,1.36,0.08c0.24,0.11,0.44,0.27,0.59,0.48
			c0.16,0.21,0.26,0.47,0.3,0.77c0.05,0.3,0.02,0.64-0.08,1.02l0,0c-0.1,0.37-0.24,0.71-0.44,1.01c-0.2,0.29-0.42,0.54-0.67,0.74
			c-0.25,0.2-0.52,0.36-0.81,0.47c-0.51,0.19-1.04,0.21-1.41,0.08c-0.17-0.05-0.31-0.13-0.43-0.22c-0.12-0.09-0.23-0.2-0.31-0.32
			c-0.03-0.04-0.05-0.08-0.08-0.12L148.73,67.94z M148.14,67.72h0.43l0.63-2.44l0.12,0.29c0.05,0.12,0.11,0.23,0.19,0.34
			c0.07,0.1,0.16,0.2,0.27,0.28c0.1,0.08,0.23,0.14,0.37,0.19c0.33,0.11,0.81,0.1,1.27-0.08c0.26-0.1,0.52-0.25,0.75-0.44
			c0.23-0.19,0.45-0.42,0.63-0.7c0.18-0.27,0.32-0.59,0.41-0.94l0,0c0.09-0.35,0.11-0.66,0.07-0.93c-0.04-0.27-0.13-0.49-0.26-0.67
			c-0.13-0.18-0.31-0.32-0.51-0.41c-0.37-0.17-0.83-0.18-1.21-0.07c-0.17,0.05-0.33,0.12-0.48,0.2c-0.15,0.08-0.29,0.19-0.43,0.3
			c-0.14,0.11-0.26,0.24-0.39,0.37l-0.28,0.3l0.3-1.15h-0.43L148.14,67.72z M153.29,64.25L153.29,64.25L153.29,64.25z M93.92,67.94
			h-0.86l1.54-5.99h0.86l-0.17,0.65c0.04-0.04,0.09-0.08,0.13-0.11c0.14-0.12,0.3-0.23,0.46-0.32c0.16-0.09,0.34-0.17,0.52-0.22
			c0.43-0.13,0.95-0.12,1.36,0.08c0.24,0.11,0.44,0.27,0.59,0.48c0.15,0.21,0.26,0.47,0.3,0.77c0.05,0.3,0.02,0.64-0.08,1.02l0,0
			c-0.1,0.37-0.24,0.71-0.44,1.01c-0.2,0.29-0.42,0.54-0.67,0.74c-0.25,0.2-0.52,0.36-0.81,0.47c-0.51,0.19-1.03,0.21-1.41,0.08
			c-0.17-0.05-0.31-0.13-0.43-0.22c-0.12-0.09-0.23-0.2-0.31-0.32c-0.03-0.04-0.05-0.08-0.08-0.12L93.92,67.94z M93.33,67.72h0.43
			l0.63-2.44l0.12,0.29c0.05,0.12,0.11,0.23,0.19,0.34c0.07,0.1,0.16,0.2,0.26,0.28c0.1,0.08,0.23,0.14,0.37,0.19
			c0.33,0.11,0.81,0.1,1.27-0.08c0.26-0.1,0.52-0.25,0.75-0.44c0.23-0.19,0.45-0.42,0.63-0.7c0.18-0.27,0.32-0.59,0.41-0.94l0,0
			c0.09-0.35,0.11-0.66,0.07-0.93c-0.04-0.27-0.13-0.49-0.26-0.67c-0.13-0.18-0.31-0.32-0.51-0.41c-0.37-0.17-0.84-0.18-1.21-0.07
			c-0.17,0.05-0.33,0.12-0.48,0.2c-0.15,0.09-0.3,0.19-0.43,0.3c-0.14,0.12-0.27,0.24-0.39,0.37l-0.28,0.3l0.3-1.15h-0.43
			L93.33,67.72z M161.21,66.67c-0.31,0-0.59-0.06-0.84-0.18c-0.25-0.12-0.45-0.29-0.61-0.5c-0.15-0.22-0.26-0.48-0.3-0.78
			c-0.04-0.3-0.02-0.63,0.07-0.98c0.08-0.33,0.22-0.64,0.4-0.93c0.18-0.29,0.4-0.54,0.64-0.76s0.52-0.39,0.81-0.51
			c0.3-0.12,0.61-0.19,0.92-0.19c0.34,0,0.62,0.07,0.86,0.2c0.24,0.13,0.42,0.31,0.55,0.54c0.13,0.22,0.2,0.49,0.22,0.79
			c0.02,0.29-0.02,0.61-0.1,0.95l-0.02,0.09c-0.01,0.04-0.02,0.08-0.04,0.12l-0.03,0.07h-3.41c-0.02,0.19-0.02,0.36,0.02,0.51
			c0.04,0.17,0.11,0.31,0.2,0.43c0.1,0.11,0.21,0.2,0.35,0.26c0.14,0.06,0.3,0.09,0.48,0.09c0.29,0,0.55-0.05,0.77-0.16
			c0.23-0.11,0.47-0.26,0.68-0.44l0.08-0.07l0.44,0.53l-0.08,0.07c-0.29,0.26-0.6,0.46-0.93,0.62
			C162.02,66.59,161.64,66.67,161.21,66.67z M162.3,62.06c-0.29,0-0.57,0.06-0.84,0.17c-0.27,0.11-0.53,0.27-0.76,0.47
			c-0.23,0.2-0.43,0.44-0.6,0.71c-0.17,0.27-0.3,0.56-0.37,0.87c-0.08,0.32-0.1,0.63-0.06,0.9c0.04,0.27,0.13,0.5,0.26,0.68
			c0.13,0.19,0.31,0.33,0.53,0.44c0.22,0.1,0.47,0.16,0.75,0.16c0.4,0,0.75-0.07,1.05-0.22c0.28-0.13,0.55-0.31,0.8-0.52l-0.17-0.21
			c-0.21,0.16-0.43,0.3-0.65,0.4c-0.26,0.12-0.55,0.18-0.86,0.18c-0.2,0-0.39-0.04-0.56-0.11c-0.17-0.07-0.32-0.18-0.44-0.32
			c-0.12-0.14-0.2-0.31-0.24-0.51c-0.04-0.2-0.05-0.42-0.01-0.68l0.01-0.09h3.44c0-0.01,0.01-0.02,0.01-0.03l0.02-0.08
			c0.08-0.33,0.12-0.62,0.1-0.89c-0.02-0.27-0.08-0.5-0.19-0.7c-0.11-0.19-0.27-0.35-0.47-0.46
			C162.86,62.12,162.6,62.06,162.3,62.06z M116.13,66.67c-0.31,0-0.59-0.06-0.84-0.18c-0.25-0.12-0.45-0.29-0.61-0.5
			c-0.15-0.22-0.26-0.48-0.3-0.78c-0.04-0.3-0.02-0.63,0.07-0.98c0.08-0.33,0.22-0.64,0.4-0.93c0.18-0.29,0.4-0.54,0.64-0.76
			c0.24-0.21,0.52-0.38,0.81-0.51c0.3-0.12,0.61-0.19,0.92-0.19c0.34,0,0.62,0.07,0.86,0.2c0.24,0.13,0.42,0.31,0.55,0.54
			c0.13,0.22,0.2,0.49,0.22,0.79c0.02,0.29-0.02,0.61-0.1,0.95l-0.02,0.09c-0.01,0.04-0.02,0.08-0.04,0.12l-0.03,0.07h-3.41
			c-0.02,0.19-0.02,0.36,0.02,0.51c0.04,0.17,0.11,0.31,0.2,0.42c0.1,0.11,0.21,0.2,0.35,0.26c0.14,0.06,0.3,0.09,0.48,0.09
			c0.29,0,0.55-0.05,0.77-0.16c0.24-0.11,0.47-0.26,0.68-0.44l0.08-0.07l0.44,0.53l-0.08,0.07c-0.29,0.26-0.6,0.46-0.93,0.62
			C116.94,66.59,116.56,66.67,116.13,66.67C116.13,66.67,116.13,66.67,116.13,66.67z M117.22,62.06c-0.29,0-0.57,0.06-0.84,0.17
			c-0.27,0.12-0.53,0.27-0.76,0.47c-0.23,0.2-0.43,0.44-0.6,0.71c-0.17,0.27-0.3,0.56-0.37,0.87c-0.08,0.32-0.11,0.63-0.06,0.9
			c0.04,0.27,0.13,0.5,0.26,0.68c0.13,0.19,0.31,0.33,0.53,0.44c0.22,0.1,0.47,0.16,0.75,0.16c0,0,0,0,0,0
			c0.4,0,0.75-0.07,1.05-0.22c0.28-0.13,0.55-0.31,0.8-0.52l-0.17-0.21c-0.21,0.16-0.43,0.3-0.65,0.4
			c-0.26,0.12-0.55,0.18-0.86,0.18c-0.2,0-0.39-0.04-0.56-0.11c-0.17-0.07-0.32-0.18-0.44-0.32c-0.12-0.14-0.2-0.31-0.24-0.51
			c-0.04-0.2-0.05-0.43-0.01-0.68l0.01-0.09h3.44c0-0.01,0.01-0.02,0.01-0.03l0.02-0.09c0.08-0.31,0.11-0.61,0.1-0.88
			c-0.01-0.27-0.08-0.5-0.19-0.7c-0.11-0.19-0.27-0.35-0.47-0.46C117.78,62.12,117.52,62.06,117.22,62.06z M103.19,66.67
			c-0.31,0-0.59-0.06-0.84-0.18c-0.25-0.12-0.45-0.29-0.61-0.5c-0.15-0.22-0.25-0.48-0.3-0.78c-0.05-0.3-0.02-0.63,0.07-0.98
			c0.08-0.33,0.22-0.64,0.4-0.93c0.18-0.29,0.4-0.54,0.64-0.76c0.25-0.21,0.52-0.39,0.81-0.51c0.3-0.12,0.61-0.19,0.92-0.19
			c0.34,0,0.62,0.07,0.86,0.2c0.24,0.13,0.42,0.31,0.55,0.54c0.13,0.22,0.2,0.49,0.22,0.79c0.02,0.29-0.02,0.61-0.1,0.95l-0.02,0.09
			c-0.01,0.04-0.02,0.08-0.04,0.12l-0.03,0.07h-3.41c-0.02,0.19-0.02,0.36,0.02,0.51c0.04,0.17,0.11,0.31,0.2,0.42
			c0.1,0.11,0.21,0.2,0.35,0.26c0.14,0.06,0.3,0.09,0.48,0.09c0.29,0,0.55-0.05,0.77-0.16c0.24-0.11,0.47-0.26,0.68-0.44l0.08-0.07
			l0.44,0.53l-0.08,0.07c-0.29,0.26-0.6,0.46-0.93,0.62C104,66.59,103.62,66.67,103.19,66.67z M104.29,62.06
			c-0.29,0-0.57,0.06-0.84,0.17c-0.27,0.12-0.53,0.27-0.76,0.47c-0.23,0.2-0.43,0.44-0.6,0.71c-0.17,0.27-0.3,0.56-0.37,0.87
			c-0.08,0.32-0.11,0.63-0.06,0.9c0.04,0.27,0.13,0.5,0.26,0.68c0.13,0.19,0.31,0.33,0.53,0.44c0.22,0.1,0.47,0.16,0.75,0.16
			c0.4,0,0.75-0.07,1.05-0.22c0.28-0.13,0.55-0.31,0.8-0.52l-0.17-0.21c-0.21,0.16-0.43,0.3-0.65,0.4
			c-0.26,0.12-0.55,0.18-0.86,0.18c-0.2,0-0.39-0.04-0.56-0.11c-0.17-0.07-0.32-0.18-0.43-0.32c-0.12-0.14-0.2-0.31-0.25-0.51
			c-0.04-0.2-0.05-0.42-0.01-0.68l0.01-0.09h3.44c0-0.01,0.01-0.02,0.01-0.03l0.02-0.1c0.08-0.31,0.11-0.61,0.1-0.88
			c-0.02-0.27-0.08-0.5-0.19-0.7c-0.11-0.19-0.27-0.35-0.47-0.46C104.84,62.12,104.59,62.06,104.29,62.06z M71.24,66.67
			c-0.31,0-0.59-0.06-0.84-0.18c-0.25-0.12-0.45-0.29-0.61-0.5c-0.15-0.21-0.26-0.48-0.3-0.78c-0.04-0.3-0.02-0.63,0.07-0.98
			c0.08-0.33,0.22-0.64,0.4-0.93c0.18-0.29,0.4-0.54,0.64-0.76c0.25-0.22,0.52-0.39,0.81-0.51c0.3-0.12,0.61-0.19,0.92-0.19
			c0.34,0,0.62,0.07,0.86,0.2c0.24,0.13,0.42,0.31,0.55,0.54c0.13,0.22,0.2,0.49,0.22,0.79c0.02,0.29-0.02,0.61-0.1,0.95l-0.02,0.09
			c-0.01,0.04-0.02,0.08-0.04,0.12l-0.03,0.07h-3.41c-0.02,0.19-0.02,0.36,0.02,0.51c0.04,0.17,0.11,0.31,0.2,0.43
			c0.1,0.11,0.21,0.2,0.35,0.26c0.14,0.06,0.3,0.09,0.48,0.09c0.28,0,0.55-0.05,0.77-0.16c0.24-0.11,0.47-0.26,0.68-0.44l0.08-0.07
			l0.44,0.53l-0.08,0.07c-0.29,0.26-0.6,0.46-0.93,0.62C72.05,66.59,71.67,66.67,71.24,66.67z M72.34,62.06
			c-0.29,0-0.57,0.06-0.84,0.17c-0.27,0.11-0.53,0.27-0.76,0.47c-0.23,0.2-0.43,0.44-0.6,0.71c-0.17,0.27-0.29,0.56-0.37,0.87
			c-0.08,0.33-0.11,0.63-0.06,0.9c0.04,0.27,0.13,0.5,0.26,0.68c0.13,0.19,0.31,0.33,0.53,0.44c0.22,0.1,0.47,0.16,0.75,0.16
			c0.4,0,0.75-0.07,1.05-0.22c0.28-0.13,0.55-0.31,0.8-0.52l-0.17-0.21c-0.21,0.16-0.43,0.3-0.65,0.4
			c-0.26,0.12-0.55,0.18-0.86,0.18c-0.2,0-0.39-0.04-0.56-0.11c-0.17-0.07-0.32-0.18-0.44-0.32c-0.12-0.14-0.2-0.31-0.25-0.51
			c-0.04-0.2-0.05-0.43-0.01-0.68l0.01-0.09h3.44c0-0.01,0.01-0.02,0.01-0.03l0.02-0.09c0.08-0.31,0.11-0.61,0.1-0.88
			c-0.02-0.27-0.08-0.5-0.19-0.7c-0.11-0.19-0.27-0.35-0.47-0.46C72.89,62.12,72.63,62.06,72.34,62.06z M53.37,66.67
			c-0.34,0-0.64-0.07-0.9-0.19c-0.26-0.13-0.47-0.31-0.62-0.53c-0.16-0.22-0.26-0.48-0.3-0.78c-0.04-0.29-0.02-0.6,0.06-0.93
			c0.08-0.32,0.22-0.63,0.41-0.92c0.19-0.29,0.42-0.55,0.68-0.76c0.26-0.22,0.56-0.39,0.87-0.52c0.32-0.13,0.65-0.19,0.99-0.19
			c0,0,0,0,0,0c0.34,0,0.64,0.07,0.9,0.19c0.26,0.13,0.47,0.31,0.63,0.53c0.16,0.22,0.26,0.48,0.3,0.78
			c0.04,0.29,0.02,0.6-0.06,0.93l0,0c-0.08,0.32-0.22,0.63-0.42,0.92c-0.19,0.29-0.42,0.55-0.68,0.76
			c-0.26,0.22-0.56,0.39-0.88,0.52C54.04,66.61,53.7,66.67,53.37,66.67z M54.57,62.06c-0.31,0-0.62,0.06-0.91,0.18
			c-0.3,0.12-0.57,0.28-0.82,0.48c-0.25,0.2-0.46,0.44-0.64,0.71c-0.18,0.27-0.31,0.56-0.38,0.86c-0.08,0.3-0.1,0.58-0.06,0.85
			c0.04,0.26,0.13,0.49,0.26,0.68c0.14,0.19,0.32,0.35,0.55,0.46c0.45,0.23,1.12,0.23,1.72,0c0.3-0.12,0.57-0.28,0.82-0.48
			c0.25-0.2,0.46-0.44,0.64-0.72c0.18-0.27,0.31-0.56,0.39-0.86l0,0c0.08-0.3,0.1-0.58,0.06-0.85c-0.04-0.26-0.13-0.49-0.26-0.68
			c-0.14-0.19-0.32-0.35-0.55-0.46C55.15,62.12,54.88,62.06,54.57,62.06C54.57,62.06,54.57,62.06,54.57,62.06z M62.56,66.66
			c-0.21,0-0.41-0.03-0.6-0.09c-0.19-0.06-0.36-0.16-0.49-0.28c-0.14-0.13-0.23-0.29-0.29-0.48c-0.05-0.19-0.05-0.41,0.02-0.66
			c0.06-0.25,0.17-0.47,0.31-0.66c0.14-0.19,0.32-0.35,0.53-0.47c0.2-0.12,0.43-0.22,0.69-0.29c0.25-0.06,0.52-0.1,0.8-0.1
			c0.28,0,0.53,0.02,0.73,0.05c0.16,0.03,0.32,0.06,0.48,0.11l0.01-0.05c0.09-0.36,0.06-0.63-0.09-0.8
			c-0.15-0.18-0.42-0.27-0.79-0.27c-0.25,0-0.48,0.03-0.7,0.09c-0.22,0.06-0.44,0.14-0.66,0.23l-0.13,0.06l-0.08-0.76l0.07-0.03
			c0.27-0.12,0.55-0.21,0.81-0.27c0.27-0.07,0.57-0.1,0.9-0.1c0.62,0,1.07,0.16,1.33,0.49c0.26,0.32,0.32,0.8,0.16,1.42l-0.71,2.78
			h-0.84l0.12-0.47c-0.15,0.12-0.32,0.22-0.51,0.32C63.32,66.58,62.96,66.66,62.56,66.66z M63.52,63.85c-0.26,0-0.52,0.03-0.75,0.09
			c-0.23,0.06-0.44,0.15-0.63,0.26c-0.18,0.11-0.34,0.25-0.47,0.42c-0.13,0.17-0.22,0.36-0.28,0.58c-0.06,0.21-0.06,0.4-0.02,0.55
			c0.04,0.15,0.12,0.28,0.23,0.38c0.11,0.11,0.25,0.18,0.41,0.24c0.17,0.05,0.35,0.08,0.54,0.08c0.37,0,0.69-0.07,0.97-0.22
			c0.28-0.15,0.53-0.32,0.72-0.51l0.27-0.27l-0.23,0.9h0.4l0.67-2.62c0.14-0.55,0.1-0.96-0.12-1.23c-0.22-0.27-0.61-0.41-1.17-0.41
			c-0.31,0-0.59,0.03-0.85,0.1c-0.23,0.06-0.47,0.14-0.71,0.23l0.03,0.32c0.19-0.07,0.37-0.14,0.56-0.19
			c0.23-0.06,0.49-0.09,0.75-0.09c0.44,0,0.76,0.11,0.95,0.34c0.2,0.23,0.24,0.56,0.13,1l-0.07,0.26l-0.11-0.03
			c-0.18-0.06-0.36-0.1-0.55-0.13C64.03,63.86,63.79,63.85,63.52,63.85z M145.59,66.66c-0.32,0-0.64-0.06-0.94-0.18
			c-0.3-0.12-0.56-0.29-0.76-0.5l-0.07-0.07l0.59-0.62l0.08,0.07c0.18,0.17,0.38,0.31,0.59,0.4c0.43,0.18,0.96,0.19,1.33-0.04
			c0.18-0.11,0.29-0.26,0.34-0.45c0.03-0.1,0.02-0.17,0-0.23c-0.03-0.06-0.08-0.12-0.15-0.17c-0.08-0.05-0.17-0.1-0.28-0.15
			c-0.12-0.04-0.24-0.09-0.37-0.13c-0.16-0.05-0.31-0.11-0.47-0.17c-0.16-0.06-0.31-0.14-0.43-0.24c-0.13-0.1-0.22-0.23-0.28-0.39
			c-0.06-0.16-0.06-0.35,0-0.58c0.06-0.22,0.14-0.4,0.26-0.57c0.12-0.17,0.27-0.31,0.43-0.43c0.17-0.12,0.36-0.21,0.57-0.27
			c0.46-0.14,0.99-0.12,1.46,0.04c0.26,0.09,0.49,0.22,0.69,0.37l0.09,0.07l-0.56,0.66l-0.08-0.06c-0.16-0.12-0.33-0.22-0.53-0.3
			c-0.41-0.16-0.88-0.14-1.18,0.06c-0.16,0.11-0.26,0.24-0.3,0.4c-0.02,0.09-0.02,0.16,0.01,0.21c0.03,0.06,0.09,0.12,0.16,0.16
			c0.08,0.05,0.18,0.1,0.3,0.14c0.12,0.05,0.25,0.09,0.38,0.14c0.16,0.05,0.31,0.11,0.46,0.17c0.16,0.07,0.3,0.15,0.42,0.26
			c0.12,0.11,0.21,0.24,0.26,0.4c0.05,0.16,0.05,0.35-0.01,0.56l0,0.02c-0.06,0.22-0.15,0.42-0.28,0.6
			c-0.13,0.17-0.28,0.32-0.46,0.44c-0.17,0.12-0.37,0.21-0.58,0.27C146.04,66.62,145.81,66.66,145.59,66.66z M144.11,65.9
			c0.17,0.16,0.38,0.28,0.62,0.38c0.47,0.19,1,0.22,1.46,0.08c0.19-0.06,0.37-0.14,0.52-0.25c0.16-0.11,0.29-0.24,0.41-0.39
			c0.11-0.15,0.2-0.32,0.25-0.52l0-0.02c0.05-0.18,0.05-0.33,0.01-0.45c-0.04-0.12-0.11-0.22-0.2-0.3c-0.1-0.09-0.22-0.16-0.36-0.22
			c-0.15-0.06-0.3-0.12-0.45-0.17c-0.14-0.05-0.26-0.09-0.39-0.14c-0.13-0.05-0.24-0.1-0.34-0.16c-0.1-0.07-0.18-0.15-0.23-0.24
			c-0.05-0.1-0.07-0.22-0.03-0.35c0.06-0.22,0.19-0.4,0.39-0.54c0.36-0.24,0.9-0.26,1.38-0.08c0.18,0.07,0.35,0.16,0.5,0.27
			l0.28-0.33c-0.16-0.11-0.34-0.2-0.54-0.27c-0.43-0.15-0.91-0.17-1.33-0.04c-0.19,0.06-0.36,0.14-0.51,0.24
			c-0.15,0.1-0.28,0.23-0.38,0.38c-0.1,0.14-0.18,0.31-0.23,0.48c-0.05,0.2-0.05,0.35-0.01,0.47c0.04,0.12,0.12,0.22,0.21,0.3
			c0.1,0.08,0.23,0.16,0.37,0.21c0.15,0.06,0.31,0.11,0.46,0.16c0.13,0.04,0.26,0.08,0.38,0.13c0.13,0.05,0.24,0.1,0.33,0.17
			c0.1,0.07,0.17,0.16,0.22,0.25c0.05,0.1,0.06,0.22,0.02,0.35c-0.07,0.26-0.21,0.45-0.43,0.59c-0.42,0.26-1.03,0.26-1.52,0.05
			c-0.21-0.09-0.4-0.21-0.58-0.37L144.11,65.9z M147.47,65.23L147.47,65.23L147.47,65.23z M125.82,66.65
			C125.81,66.65,125.81,66.65,125.82,66.65c-0.19,0-0.36-0.02-0.51-0.07c-0.16-0.05-0.29-0.14-0.38-0.25
			c-0.1-0.11-0.16-0.26-0.18-0.44c-0.02-0.17,0-0.38,0.06-0.61l0.65-2.53h-0.6l0.2-0.79l0.6,0l0.34-1.33h0.86l-0.34,1.33h1.37
			l-0.2,0.79h-1.37l-0.64,2.5c-0.04,0.16-0.07,0.37,0.03,0.47c0.08,0.09,0.22,0.13,0.41,0.13c0.1,0,0.2-0.01,0.3-0.03
			c0.1-0.02,0.2-0.06,0.32-0.11l0.2-0.09l-0.21,0.82l-0.04,0.02c-0.13,0.07-0.27,0.12-0.41,0.15
			C126.13,66.63,125.98,66.65,125.82,66.65z M125.81,66.44C125.81,66.44,125.81,66.44,125.81,66.44c0.15,0,0.29-0.02,0.41-0.04
			c0.11-0.03,0.22-0.06,0.33-0.11l0.08-0.31c-0.06,0.02-0.11,0.04-0.17,0.05c-0.11,0.02-0.23,0.04-0.35,0.04
			c-0.25,0-0.44-0.07-0.56-0.19c-0.14-0.14-0.16-0.36-0.08-0.67l0.68-2.66h1.37l0.09-0.37h-1.37l0.34-1.33h-0.43l-0.34,1.33l-0.6,0
			l-0.09,0.37h0.6l-0.72,2.8c-0.05,0.21-0.07,0.39-0.05,0.53c0.02,0.14,0.06,0.25,0.13,0.33c0.07,0.09,0.16,0.15,0.29,0.18
			C125.5,66.41,125.65,66.44,125.81,66.44C125.81,66.44,125.81,66.44,125.81,66.44z M67.53,66.65c-0.18,0-0.35-0.02-0.5-0.07
			c-0.16-0.05-0.29-0.14-0.38-0.25c-0.1-0.11-0.16-0.26-0.18-0.44c-0.02-0.17,0-0.38,0.06-0.61l0.65-2.53h-0.6l0.2-0.79h0.6
			l0.34-1.33h0.86l-0.34,1.33h1.37l-0.2,0.79h-1.37l-0.64,2.5c-0.04,0.16-0.07,0.37,0.03,0.47c0.09,0.09,0.22,0.13,0.41,0.13
			c0.1,0,0.2-0.01,0.3-0.03c0.1-0.02,0.2-0.06,0.32-0.11l0.2-0.09l-0.21,0.82l-0.04,0.02c-0.14,0.07-0.27,0.12-0.41,0.15
			C67.85,66.63,67.7,66.65,67.53,66.65C67.53,66.65,67.53,66.65,67.53,66.65z M66.85,62.53h0.6l-0.72,2.8
			c-0.05,0.21-0.07,0.39-0.05,0.53c0.02,0.14,0.06,0.25,0.13,0.33c0.07,0.08,0.17,0.15,0.29,0.18c0.13,0.04,0.27,0.06,0.43,0.06
			c0,0,0,0,0,0c0.15,0,0.29-0.02,0.41-0.04c0.11-0.03,0.22-0.06,0.33-0.11l0.08-0.31c-0.06,0.02-0.11,0.04-0.17,0.05
			c-0.11,0.02-0.23,0.04-0.35,0.04c-0.25,0-0.44-0.07-0.56-0.19c-0.13-0.14-0.16-0.36-0.08-0.67l0.68-2.66h1.37l0.1-0.37h-1.37
			l0.34-1.33h-0.43l-0.34,1.33h-0.6L66.85,62.53z M58.65,66.6h-0.72l-0.77-4.66h0.93l0.49,3.48l2.29-3.48h0.95L58.65,66.6z
			 M58.11,66.39h0.42l2.89-4.24h-0.44l-2.53,3.85l-0.54-3.85h-0.5L58.11,66.39z M49.26,66.57l0.7-2.71c0.1-0.38,0.08-0.68-0.05-0.89
			c-0.13-0.21-0.36-0.31-0.7-0.31c0,0,0,0,0,0c-0.17,0-0.34,0.03-0.5,0.09c-0.16,0.06-0.32,0.15-0.46,0.26
			c-0.14,0.11-0.26,0.25-0.36,0.41c-0.1,0.16-0.18,0.34-0.23,0.53l-0.67,2.61h-0.86l1.19-4.62h0.86l-0.13,0.52
			c0.15-0.13,0.3-0.25,0.47-0.35c0.29-0.18,0.64-0.27,1.03-0.27c0.28,0,0.52,0.05,0.71,0.14c0.2,0.09,0.36,0.23,0.47,0.4
			c0.11,0.17,0.18,0.37,0.2,0.61c0.02,0.23,0,0.48-0.07,0.75l-0.73,2.82L49.26,66.57z M46.39,66.36h0.43l0.63-2.45
			c0.06-0.21,0.14-0.41,0.25-0.59c0.11-0.18,0.25-0.34,0.41-0.46c0.16-0.13,0.33-0.23,0.52-0.3c0.19-0.07,0.38-0.1,0.58-0.1
			c0,0,0,0,0,0c0.42,0,0.72,0.14,0.88,0.41c0.16,0.26,0.18,0.62,0.07,1.05l-0.63,2.45h0.43l0.68-2.66c0.06-0.25,0.09-0.48,0.07-0.68
			c-0.02-0.2-0.07-0.37-0.17-0.51c-0.09-0.14-0.22-0.25-0.38-0.32c-0.17-0.08-0.38-0.12-0.62-0.12c-0.35,0-0.66,0.08-0.92,0.24
			c-0.27,0.16-0.5,0.36-0.7,0.59l-0.29,0.34l0.28-1.07h-0.43L46.39,66.36z M47.55,63.94L47.55,63.94L47.55,63.94z M44.09,66.57
			l0.7-2.71c0.1-0.38,0.08-0.68-0.05-0.89c-0.13-0.21-0.36-0.31-0.7-0.31c0,0,0,0,0,0c-0.17,0-0.34,0.03-0.5,0.09
			c-0.16,0.06-0.32,0.15-0.46,0.26c-0.14,0.11-0.26,0.25-0.36,0.41c-0.1,0.16-0.18,0.34-0.23,0.53l-0.67,2.61l-0.86,0l1.19-4.62H43
			l-0.13,0.52c0.15-0.13,0.3-0.25,0.47-0.35c0.29-0.18,0.64-0.27,1.03-0.27c0.28,0,0.52,0.05,0.71,0.14c0.2,0.09,0.36,0.23,0.47,0.4
			c0.11,0.17,0.18,0.37,0.2,0.61c0.02,0.23,0,0.48-0.07,0.75l-0.73,2.82L44.09,66.57z M41.22,66.36l0.43,0l0.63-2.45
			c0.06-0.21,0.14-0.41,0.25-0.59c0.11-0.18,0.25-0.34,0.41-0.46c0.16-0.13,0.33-0.23,0.52-0.3c0.19-0.07,0.38-0.1,0.58-0.1
			c0,0,0,0,0,0c0.42,0,0.72,0.14,0.88,0.41c0.16,0.26,0.18,0.62,0.07,1.05l-0.63,2.45h0.43l0.68-2.66c0.06-0.25,0.09-0.48,0.07-0.68
			c-0.02-0.2-0.07-0.37-0.17-0.51c-0.09-0.14-0.22-0.25-0.38-0.32c-0.17-0.08-0.38-0.12-0.62-0.12c-0.35,0-0.66,0.08-0.92,0.24
			c-0.27,0.16-0.5,0.36-0.7,0.59l-0.29,0.34l0.28-1.07H42.3L41.22,66.36z M156.85,66.57h-0.86l1.19-4.62h0.86l-0.21,0.81
			c0.04-0.04,0.08-0.09,0.12-0.13c0.16-0.16,0.34-0.3,0.52-0.41c0.19-0.11,0.38-0.2,0.59-0.26c0.2-0.06,0.42-0.09,0.63-0.08l0.13,0
			l-0.24,0.92h-0.13c-0.22,0-0.44,0.04-0.66,0.12c-0.22,0.08-0.43,0.2-0.62,0.37c-0.19,0.16-0.36,0.37-0.51,0.61
			c-0.15,0.24-0.27,0.53-0.35,0.85L156.85,66.57z M156.26,66.36h0.43l0.43-1.68c0.09-0.34,0.21-0.64,0.37-0.9
			c0.16-0.26,0.34-0.48,0.55-0.66c0.21-0.18,0.44-0.31,0.68-0.4c0.23-0.09,0.47-0.13,0.7-0.13l0.13-0.5
			c-0.15,0.01-0.29,0.03-0.43,0.07c-0.18,0.05-0.36,0.14-0.53,0.24c-0.17,0.11-0.34,0.24-0.49,0.38c-0.15,0.15-0.29,0.31-0.41,0.49
			l-0.34,0.49l0.41-1.6h-0.43L156.26,66.36z M157.22,64.71L157.22,64.71L157.22,64.71z M154.7,66.57h-0.86l1.19-4.62h0.86
			L154.7,66.57z M154.11,66.36h0.43l1.08-4.2h-0.43L154.11,66.36z M142.88,66.57h-0.86l0.7-2.71c0.1-0.38,0.08-0.68-0.05-0.89
			c-0.13-0.21-0.36-0.31-0.71-0.31c-0.17,0-0.34,0.03-0.5,0.09c-0.16,0.06-0.32,0.15-0.46,0.26c-0.14,0.11-0.26,0.25-0.36,0.41
			c-0.1,0.16-0.18,0.34-0.23,0.53l-0.67,2.61h-0.86l1.19-4.62l0.86,0l-0.13,0.52c0.14-0.13,0.3-0.25,0.47-0.35
			c0.29-0.18,0.64-0.27,1.03-0.27c0.28,0,0.52,0.05,0.71,0.14c0.2,0.09,0.36,0.23,0.47,0.4c0.11,0.17,0.18,0.38,0.2,0.61
			c0.02,0.23,0,0.48-0.07,0.75L142.88,66.57z M142.29,66.36h0.43l0.68-2.66c0.06-0.25,0.09-0.48,0.07-0.68
			c-0.02-0.2-0.07-0.37-0.17-0.51c-0.09-0.14-0.22-0.25-0.38-0.32c-0.17-0.08-0.38-0.12-0.62-0.12c-0.35,0-0.66,0.08-0.92,0.24
			c-0.27,0.16-0.5,0.36-0.7,0.59l-0.29,0.34l0.28-1.07h-0.43l-1.08,4.2h0.43l0.63-2.45c0.06-0.22,0.14-0.41,0.25-0.59
			c0.11-0.18,0.25-0.34,0.41-0.46c0.16-0.13,0.33-0.23,0.52-0.3c0.19-0.07,0.38-0.1,0.58-0.1c0.42,0,0.72,0.14,0.89,0.41
			c0.16,0.26,0.18,0.62,0.07,1.05L142.29,66.36z M137.59,66.57h-0.86l1.19-4.62l0.86,0L137.59,66.57z M137,66.36h0.43l1.08-4.2
			l-0.43,0L137,66.36z M123.09,66.57h-0.86l0.7-2.71c0.1-0.38,0.08-0.68-0.05-0.89c-0.13-0.21-0.36-0.31-0.71-0.31
			c-0.17,0-0.34,0.03-0.5,0.09c-0.16,0.06-0.32,0.15-0.46,0.26c-0.14,0.12-0.26,0.25-0.36,0.41c-0.1,0.16-0.18,0.34-0.23,0.53h0
			l-0.67,2.61h-0.86l1.19-4.62h0.86L121,62.47c0.15-0.13,0.3-0.25,0.47-0.35c0.29-0.18,0.64-0.27,1.03-0.27
			c0.28,0,0.52,0.05,0.71,0.14c0.2,0.09,0.36,0.23,0.47,0.4c0.11,0.17,0.18,0.37,0.2,0.61c0.02,0.23,0,0.48-0.07,0.75L123.09,66.57z
			 M122.5,66.36h0.43l0.68-2.66c0.06-0.25,0.09-0.48,0.07-0.68c-0.02-0.2-0.07-0.37-0.17-0.51c-0.09-0.14-0.22-0.25-0.38-0.32
			c-0.17-0.08-0.38-0.12-0.62-0.12c-0.35,0-0.66,0.08-0.92,0.24c-0.27,0.16-0.5,0.36-0.7,0.59l-0.29,0.34l0.28-1.07h-0.43l-1.08,4.2
			h0.43l0.63-2.45c0.05-0.21,0.14-0.41,0.25-0.59c0.11-0.18,0.25-0.34,0.41-0.46c0.16-0.13,0.33-0.23,0.52-0.3
			c0.19-0.07,0.38-0.1,0.58-0.1c0.42,0,0.72,0.14,0.89,0.41c0.16,0.26,0.18,0.62,0.07,1.05L122.5,66.36z M120.51,63.94L120.51,63.94
			L120.51,63.94z M112.93,66.57h-0.86l0.7-2.71c0.1-0.4,0.09-0.7-0.03-0.9c-0.12-0.2-0.33-0.29-0.65-0.29
			c-0.15,0-0.3,0.03-0.45,0.08c-0.15,0.06-0.29,0.14-0.42,0.25c-0.13,0.11-0.25,0.25-0.35,0.41c-0.1,0.16-0.18,0.35-0.23,0.55
			l-0.67,2.62h-0.86l0.7-2.73c0.1-0.38,0.09-0.68-0.04-0.89c-0.12-0.2-0.33-0.29-0.64-0.29c-0.16,0-0.31,0.03-0.46,0.09
			c-0.15,0.06-0.29,0.16-0.43,0.27c-0.13,0.12-0.25,0.26-0.35,0.42c-0.1,0.16-0.17,0.34-0.22,0.53l-0.67,2.6h-0.86l1.19-4.62h0.86
			l-0.13,0.5c0.02-0.02,0.03-0.03,0.05-0.05c0.12-0.11,0.25-0.2,0.38-0.28c0.14-0.08,0.29-0.15,0.45-0.19
			c0.16-0.05,0.34-0.07,0.53-0.07c0.38,0,0.67,0.09,0.88,0.28c0.15,0.14,0.27,0.31,0.34,0.5c0.07-0.07,0.15-0.15,0.23-0.22
			c0.13-0.11,0.27-0.21,0.42-0.29c0.15-0.08,0.31-0.15,0.49-0.2c0.17-0.05,0.36-0.07,0.56-0.07c0.54,0,0.93,0.18,1.15,0.52
			c0.22,0.34,0.26,0.81,0.11,1.39L112.93,66.57z M112.34,66.36h0.43l0.68-2.65c0.13-0.52,0.11-0.93-0.08-1.22
			c-0.18-0.29-0.5-0.43-0.97-0.43c-0.18,0-0.35,0.02-0.5,0.06c-0.16,0.04-0.3,0.1-0.44,0.18c-0.14,0.08-0.27,0.17-0.39,0.27
			c-0.12,0.1-0.24,0.22-0.34,0.33l-0.14,0.15l-0.04-0.2c-0.05-0.23-0.16-0.42-0.33-0.57c-0.16-0.15-0.41-0.22-0.74-0.22
			c-0.17,0-0.33,0.02-0.47,0.06c-0.14,0.04-0.28,0.1-0.4,0.17c-0.12,0.07-0.24,0.16-0.35,0.26c-0.11,0.1-0.22,0.2-0.31,0.31
			l-0.28,0.3l0.26-1.01h-0.43l-1.08,4.2h0.43l0.63-2.44c0.06-0.22,0.14-0.41,0.25-0.59c0.11-0.18,0.24-0.33,0.39-0.46
			c0.15-0.13,0.31-0.24,0.49-0.31c0.17-0.07,0.36-0.11,0.54-0.11c0.38,0,0.66,0.13,0.82,0.4c0.15,0.25,0.17,0.61,0.06,1.05
			l-0.63,2.46h0.42l0.63-2.46c0.06-0.23,0.15-0.43,0.26-0.61c0.11-0.18,0.25-0.33,0.39-0.46c0.15-0.12,0.31-0.22,0.48-0.28
			c0.17-0.06,0.35-0.1,0.52-0.1c0.39,0,0.67,0.13,0.83,0.4c0.15,0.25,0.17,0.61,0.06,1.07L112.34,66.36z M99.9,66.57h-0.86
			l1.66-6.44h0.86l-0.03,0.13L99.9,66.57z M99.31,66.36h0.43l1.55-6.02h-0.43L99.31,66.36z M92.23,66.57h-0.86l0.7-2.71
			c0.1-0.4,0.09-0.7-0.03-0.9c-0.12-0.2-0.33-0.29-0.65-0.29c-0.15,0-0.3,0.03-0.45,0.08c-0.15,0.06-0.29,0.14-0.42,0.25
			c-0.13,0.11-0.25,0.25-0.35,0.41c-0.1,0.16-0.18,0.35-0.23,0.55l-0.67,2.62H88.4l0.7-2.73c0.1-0.38,0.09-0.68-0.04-0.89
			c-0.12-0.2-0.33-0.29-0.64-0.29c-0.16,0-0.31,0.03-0.46,0.09c-0.15,0.06-0.29,0.16-0.43,0.27c-0.13,0.12-0.25,0.26-0.35,0.42
			c-0.1,0.16-0.17,0.34-0.22,0.53l-0.67,2.6h-0.86l1.19-4.62l0.86,0l-0.13,0.5c0.02-0.02,0.03-0.03,0.05-0.05
			c0.12-0.11,0.25-0.2,0.38-0.28c0.14-0.08,0.29-0.15,0.45-0.19c0.16-0.05,0.34-0.07,0.53-0.07c0.38,0,0.67,0.09,0.88,0.28
			c0.15,0.14,0.27,0.31,0.34,0.5c0.07-0.07,0.15-0.15,0.23-0.22c0.13-0.11,0.27-0.21,0.42-0.29c0.15-0.08,0.31-0.15,0.49-0.2
			c0.17-0.05,0.36-0.07,0.56-0.07c0.54,0,0.93,0.18,1.15,0.52c0.22,0.34,0.26,0.81,0.11,1.39L92.23,66.57z M91.64,66.36h0.43
			l0.68-2.65c0.13-0.52,0.11-0.93-0.08-1.22c-0.18-0.29-0.5-0.43-0.97-0.43c-0.18,0-0.35,0.02-0.5,0.06
			c-0.16,0.04-0.3,0.1-0.44,0.18c-0.14,0.08-0.27,0.17-0.39,0.27c-0.12,0.1-0.24,0.22-0.34,0.33l-0.14,0.15l-0.04-0.2
			c-0.05-0.23-0.16-0.42-0.33-0.57c-0.16-0.15-0.41-0.22-0.74-0.22c-0.17,0-0.33,0.02-0.47,0.06c-0.14,0.04-0.28,0.1-0.4,0.17
			c-0.12,0.07-0.24,0.16-0.35,0.26c-0.11,0.1-0.21,0.2-0.31,0.31l-0.28,0.3l0.26-1.01h-0.43l-1.08,4.2h0.43l0.63-2.44
			c0.05-0.21,0.14-0.41,0.25-0.59c0.11-0.18,0.24-0.33,0.39-0.46c0.15-0.13,0.31-0.24,0.49-0.31c0.17-0.07,0.36-0.11,0.55-0.11
			c0.38,0,0.66,0.13,0.82,0.4c0.15,0.25,0.17,0.61,0.06,1.05l-0.63,2.46h0.42l0.63-2.46c0.06-0.23,0.15-0.43,0.26-0.61
			c0.11-0.18,0.25-0.33,0.39-0.46c0.15-0.12,0.31-0.22,0.48-0.28c0.17-0.06,0.35-0.1,0.52-0.1c0.39,0,0.67,0.13,0.83,0.4
			c0.15,0.25,0.17,0.61,0.06,1.07L91.64,66.36z M84.15,66.57h-0.86l1.19-4.62h0.86L84.15,66.57z M83.56,66.36h0.43l1.08-4.2h-0.43
			L83.56,66.36z M39.56,66.57h-0.88l1.59-6.19h0.88L39.56,66.57z M38.95,66.36h0.44l1.48-5.76h-0.44L38.95,66.36z M62.82,66.14
			c-0.15,0-0.3-0.02-0.43-0.06c-0.14-0.04-0.25-0.11-0.34-0.2c-0.09-0.09-0.16-0.2-0.2-0.32c-0.04-0.13-0.03-0.27,0.01-0.43
			c0.08-0.31,0.26-0.56,0.54-0.74c0.28-0.18,0.63-0.26,1.06-0.26c0.27,0,0.51,0.02,0.72,0.06c0.2,0.04,0.38,0.08,0.53,0.13l0.1,0.03
			l-0.13,0.52c-0.05,0.19-0.13,0.36-0.26,0.52c-0.12,0.16-0.27,0.29-0.43,0.4c-0.17,0.11-0.35,0.2-0.55,0.26
			C63.24,66.11,63.03,66.14,62.82,66.14z M63.46,64.33c-0.38,0-0.7,0.08-0.94,0.23c-0.24,0.15-0.39,0.35-0.45,0.61
			c-0.03,0.12-0.03,0.23-0.01,0.32c0.03,0.09,0.07,0.17,0.14,0.23c0.07,0.06,0.16,0.12,0.26,0.15c0.27,0.09,0.62,0.06,0.92-0.03
			c0.18-0.06,0.35-0.14,0.5-0.23c0.15-0.1,0.27-0.21,0.38-0.35c0.1-0.13,0.18-0.28,0.22-0.44l0.08-0.33
			c-0.12-0.03-0.26-0.07-0.42-0.1C63.95,64.35,63.72,64.33,63.46,64.33z M53.54,66.07c-0.25,0-0.47-0.05-0.65-0.15
			c-0.19-0.1-0.34-0.23-0.45-0.4c-0.11-0.17-0.18-0.37-0.21-0.59c-0.03-0.22-0.01-0.46,0.05-0.71c0.06-0.25,0.17-0.48,0.3-0.7
			c0.14-0.22,0.3-0.41,0.48-0.57c0.18-0.16,0.39-0.29,0.62-0.38c0.46-0.18,0.99-0.19,1.37,0.01c0.19,0.1,0.34,0.24,0.45,0.4
			c0.11,0.17,0.19,0.37,0.22,0.59c0.03,0.22,0.01,0.46-0.05,0.71l0,0c-0.06,0.25-0.17,0.48-0.3,0.7c-0.14,0.22-0.3,0.41-0.49,0.56
			c-0.19,0.16-0.4,0.29-0.63,0.38C54.03,66.03,53.79,66.07,53.54,66.07z M54.4,62.64c-0.22,0-0.44,0.04-0.64,0.12
			c-0.21,0.08-0.39,0.2-0.56,0.35c-0.17,0.15-0.32,0.32-0.44,0.52c-0.12,0.2-0.22,0.41-0.28,0.64c-0.06,0.23-0.07,0.43-0.05,0.63
			c0.02,0.19,0.08,0.36,0.18,0.5c0.09,0.14,0.22,0.25,0.37,0.33c0.32,0.17,0.79,0.16,1.19,0c0.21-0.08,0.4-0.2,0.57-0.34
			c0.17-0.15,0.32-0.32,0.45-0.52c0.13-0.2,0.22-0.41,0.28-0.64l0,0c0.06-0.23,0.07-0.43,0.05-0.63c-0.02-0.19-0.08-0.36-0.18-0.5
			c-0.09-0.14-0.22-0.25-0.38-0.34C54.8,62.69,54.61,62.64,54.4,62.64z M55.57,64.27L55.57,64.27L55.57,64.27z M150.67,66.07
			c-0.22,0-0.42-0.05-0.6-0.13c-0.18-0.09-0.33-0.21-0.45-0.37c-0.12-0.16-0.2-0.36-0.23-0.59c-0.03-0.23-0.02-0.48,0.05-0.74
			c0.07-0.26,0.18-0.51,0.32-0.73c0.14-0.22,0.32-0.4,0.51-0.56c0.2-0.15,0.4-0.27,0.62-0.36c0.45-0.18,0.91-0.17,1.26,0
			c0.18,0.08,0.33,0.21,0.44,0.38c0.11,0.16,0.18,0.36,0.21,0.58c0.03,0.22,0.01,0.47-0.06,0.75h0c-0.07,0.28-0.18,0.53-0.32,0.75
			c-0.14,0.22-0.3,0.41-0.49,0.56c-0.18,0.15-0.39,0.27-0.6,0.35C151.11,66.03,150.89,66.07,150.67,66.07z M151.54,62.66
			c-0.19,0-0.38,0.04-0.58,0.12c-0.2,0.08-0.39,0.19-0.56,0.33c-0.18,0.14-0.33,0.31-0.47,0.51c-0.13,0.2-0.23,0.42-0.29,0.66
			c-0.06,0.24-0.08,0.46-0.05,0.66c0.03,0.19,0.09,0.36,0.19,0.49c0.1,0.13,0.23,0.24,0.38,0.31c0.31,0.15,0.71,0.15,1.09,0
			c0.19-0.07,0.37-0.18,0.54-0.31c0.17-0.14,0.31-0.31,0.44-0.51c0.13-0.2,0.23-0.43,0.29-0.69h0c0.06-0.25,0.08-0.47,0.06-0.67
			c-0.03-0.19-0.08-0.36-0.18-0.49c-0.09-0.13-0.21-0.24-0.36-0.31C151.9,62.7,151.73,62.66,151.54,62.66z M95.86,66.07
			c-0.21,0-0.41-0.05-0.59-0.13c-0.18-0.09-0.33-0.21-0.45-0.37c-0.12-0.16-0.2-0.36-0.23-0.59c-0.03-0.23-0.02-0.48,0.05-0.74
			c0.07-0.26,0.18-0.51,0.32-0.73c0.15-0.22,0.32-0.4,0.51-0.56c0.19-0.15,0.4-0.27,0.62-0.36c0.45-0.18,0.91-0.17,1.26,0
			c0.18,0.09,0.33,0.21,0.44,0.38c0.11,0.16,0.18,0.36,0.21,0.58c0.03,0.22,0.01,0.47-0.06,0.75l0,0c-0.07,0.28-0.18,0.53-0.32,0.75
			c-0.14,0.22-0.3,0.41-0.49,0.56c-0.18,0.15-0.39,0.27-0.6,0.35C96.3,66.03,96.08,66.07,95.86,66.07
			C95.86,66.07,95.86,66.07,95.86,66.07z M96.74,62.66c-0.19,0-0.38,0.04-0.58,0.12c-0.2,0.08-0.39,0.19-0.56,0.33
			c-0.18,0.14-0.33,0.31-0.47,0.51c-0.13,0.2-0.23,0.42-0.29,0.66c-0.06,0.24-0.08,0.46-0.05,0.66c0.03,0.19,0.09,0.36,0.19,0.49
			c0.1,0.13,0.23,0.24,0.38,0.31c0.15,0.07,0.32,0.11,0.5,0.11c0,0,0,0,0,0c0.19,0,0.39-0.04,0.58-0.11
			c0.19-0.07,0.37-0.18,0.54-0.31c0.17-0.14,0.31-0.31,0.44-0.51c0.13-0.2,0.23-0.43,0.29-0.69l0,0c0.06-0.25,0.08-0.47,0.06-0.67
			c-0.02-0.19-0.08-0.36-0.18-0.49c-0.09-0.13-0.21-0.24-0.36-0.31C97.1,62.7,96.93,62.66,96.74,62.66z M132.05,64.68
			c-0.17,0-0.32-0.03-0.45-0.1c-0.13-0.07-0.24-0.16-0.32-0.27c-0.08-0.11-0.14-0.25-0.16-0.4c-0.03-0.15-0.02-0.31,0.03-0.48
			c0.04-0.16,0.11-0.32,0.21-0.47c0.1-0.15,0.22-0.27,0.35-0.38c0.13-0.11,0.28-0.19,0.44-0.26c0.33-0.13,0.68-0.13,0.94,0
			c0.13,0.07,0.24,0.16,0.32,0.27c0.08,0.11,0.14,0.25,0.16,0.4c0.03,0.15,0.02,0.31-0.03,0.48l0,0c-0.04,0.16-0.11,0.32-0.22,0.47
			c-0.1,0.14-0.22,0.27-0.35,0.38c-0.13,0.11-0.28,0.19-0.44,0.25C132.38,64.65,132.21,64.68,132.05,64.68z M132.63,62.45
			c-0.14,0-0.27,0.03-0.41,0.08c-0.14,0.06-0.27,0.13-0.38,0.22c-0.11,0.09-0.22,0.2-0.31,0.33c-0.09,0.13-0.15,0.26-0.18,0.4
			c-0.04,0.14-0.04,0.27-0.02,0.39c0.02,0.12,0.06,0.22,0.13,0.31c0.06,0.09,0.15,0.16,0.25,0.21c0.21,0.11,0.5,0.1,0.77,0
			c0.14-0.06,0.27-0.13,0.38-0.22c0.12-0.09,0.22-0.2,0.31-0.33c0.09-0.13,0.15-0.26,0.18-0.4l0,0c0.04-0.14,0.04-0.27,0.02-0.39
			c-0.02-0.12-0.06-0.22-0.13-0.31c-0.06-0.09-0.14-0.15-0.25-0.21C132.88,62.47,132.76,62.45,132.63,62.45z M78.61,64.68
			c-0.17,0-0.32-0.03-0.45-0.1c-0.13-0.07-0.24-0.16-0.32-0.27c-0.08-0.11-0.14-0.25-0.16-0.4c-0.03-0.15-0.02-0.31,0.03-0.48
			c0.04-0.17,0.12-0.32,0.22-0.47c0.1-0.14,0.22-0.27,0.35-0.38s0.28-0.19,0.44-0.26c0.33-0.13,0.68-0.13,0.94,0
			c0.13,0.07,0.24,0.16,0.32,0.27c0.08,0.11,0.14,0.25,0.16,0.4c0.03,0.15,0.02,0.31-0.03,0.48l0,0c-0.04,0.16-0.11,0.32-0.22,0.47
			c-0.1,0.14-0.22,0.27-0.35,0.38c-0.13,0.11-0.28,0.19-0.44,0.25C78.94,64.65,78.77,64.68,78.61,64.68z M79.19,62.45
			c-0.14,0-0.28,0.03-0.41,0.08c-0.14,0.06-0.27,0.13-0.38,0.22c-0.12,0.09-0.22,0.2-0.31,0.33c-0.09,0.12-0.15,0.26-0.18,0.4
			c-0.04,0.14-0.04,0.27-0.02,0.39c0.02,0.12,0.06,0.22,0.13,0.31c0.06,0.09,0.15,0.15,0.25,0.21c0.21,0.11,0.5,0.1,0.77,0
			c0.14-0.06,0.27-0.13,0.38-0.22c0.12-0.09,0.22-0.2,0.3-0.33c0.09-0.13,0.15-0.26,0.18-0.4l0,0c0.04-0.14,0.04-0.27,0.02-0.39
			c-0.02-0.12-0.06-0.22-0.13-0.31c-0.06-0.09-0.14-0.15-0.25-0.21C79.44,62.47,79.32,62.45,79.19,62.45z M163.22,64.12l-3.01,0
			l0.05-0.14c0.08-0.22,0.19-0.43,0.32-0.62c0.13-0.19,0.28-0.35,0.44-0.49c0.17-0.14,0.35-0.25,0.53-0.33
			c0.41-0.18,0.89-0.16,1.19,0.01c0.16,0.09,0.28,0.21,0.37,0.37c0.09,0.15,0.14,0.33,0.16,0.52c0.02,0.19,0.01,0.39-0.03,0.6
			L163.22,64.12z M160.51,63.91l2.53,0c0.02-0.16,0.03-0.31,0.01-0.46c-0.02-0.16-0.06-0.31-0.13-0.43
			c-0.07-0.12-0.17-0.22-0.29-0.29c-0.24-0.14-0.65-0.15-1,0c-0.17,0.07-0.33,0.17-0.48,0.3c-0.15,0.13-0.28,0.28-0.4,0.45
			C160.66,63.61,160.58,63.76,160.51,63.91z M118.14,64.12h-3.01l0.05-0.14c0.08-0.22,0.19-0.43,0.32-0.62
			c0.13-0.19,0.28-0.35,0.44-0.49c0.17-0.14,0.35-0.25,0.53-0.33c0.41-0.18,0.89-0.16,1.19,0.01c0.16,0.09,0.28,0.21,0.37,0.37
			c0.09,0.15,0.14,0.33,0.16,0.52c0.02,0.19,0.01,0.4-0.03,0.6L118.14,64.12z M115.43,63.91h2.53c0.02-0.16,0.03-0.31,0.01-0.46
			c-0.02-0.16-0.06-0.31-0.13-0.43c-0.07-0.12-0.17-0.22-0.29-0.29c-0.24-0.14-0.65-0.15-1,0c-0.17,0.07-0.33,0.17-0.48,0.3
			c-0.15,0.13-0.28,0.28-0.4,0.45C115.58,63.61,115.5,63.76,115.43,63.91z M105.2,64.12h-3.01l0.05-0.14
			c0.08-0.22,0.19-0.43,0.32-0.62c0.13-0.19,0.28-0.36,0.44-0.49c0.17-0.14,0.34-0.25,0.53-0.33c0.42-0.18,0.89-0.16,1.19,0.01
			c0.16,0.09,0.28,0.21,0.37,0.37c0.09,0.15,0.14,0.33,0.16,0.52c0.02,0.19,0.01,0.39-0.03,0.6L105.2,64.12z M102.5,63.91h2.53
			c0.02-0.16,0.03-0.31,0.01-0.46c-0.02-0.16-0.06-0.31-0.13-0.43c-0.07-0.12-0.17-0.22-0.29-0.29c-0.24-0.14-0.64-0.15-1,0
			c-0.17,0.07-0.33,0.17-0.48,0.3c-0.15,0.13-0.28,0.28-0.4,0.45C102.64,63.61,102.56,63.76,102.5,63.91z M73.25,64.12h-3.01
			l0.05-0.14c0.08-0.22,0.19-0.43,0.32-0.62c0.13-0.19,0.28-0.35,0.44-0.49c0.17-0.14,0.35-0.25,0.53-0.33
			c0.41-0.18,0.89-0.16,1.19,0.01c0.16,0.09,0.28,0.21,0.37,0.37c0.09,0.15,0.14,0.33,0.16,0.52c0.02,0.19,0.01,0.39-0.03,0.6
			L73.25,64.12z M70.54,63.91h2.53c0.02-0.16,0.03-0.31,0.01-0.46c-0.02-0.16-0.06-0.31-0.13-0.43c-0.07-0.12-0.17-0.22-0.29-0.29
			c-0.24-0.14-0.65-0.15-1,0c-0.17,0.07-0.33,0.17-0.48,0.3c-0.15,0.13-0.29,0.28-0.4,0.45C70.69,63.61,70.61,63.76,70.54,63.91z
			 M138.07,61.19l0.24-0.94h0.96l-0.24,0.94L138.07,61.19z M138.94,61.09L138.94,61.09L138.94,61.09z M138.47,60.47l-0.13,0.51
			l0.52,0l0.13-0.51H138.47z M156.14,61.19h-0.96l0.24-0.94h0.96L156.14,61.19z M155.45,60.98h0.52l0.13-0.51h-0.52L155.45,60.98z
			 M85.59,61.19h-0.96l0.24-0.94h0.96L85.59,61.19z M84.9,60.98h0.52l0.13-0.51h-0.52L84.9,60.98z"/>
	</g>
	<g>
		<path class="st2" d="M160.36,64.01c0.08-0.22,0.18-0.42,0.3-0.6c0.13-0.18,0.27-0.34,0.42-0.47c0.16-0.13,0.33-0.24,0.51-0.32
			c0.18-0.08,0.37-0.12,0.55-0.12c0.22,0,0.4,0.04,0.54,0.12c0.14,0.08,0.25,0.19,0.33,0.33c0.08,0.14,0.13,0.3,0.14,0.48
			c0.02,0.18,0.01,0.37-0.03,0.57H160.36z M160.23,64.5h3.43c0.02-0.04,0.03-0.08,0.04-0.11c0.01-0.03,0.02-0.07,0.02-0.09
			c0.08-0.32,0.12-0.63,0.1-0.91c-0.02-0.28-0.08-0.53-0.2-0.74c-0.12-0.21-0.29-0.38-0.51-0.5c-0.22-0.12-0.49-0.18-0.81-0.18
			c-0.3,0-0.6,0.06-0.88,0.18c-0.29,0.12-0.55,0.28-0.78,0.49c-0.24,0.21-0.44,0.45-0.62,0.73c-0.18,0.28-0.3,0.58-0.39,0.9
			c-0.09,0.34-0.11,0.65-0.07,0.94c0.04,0.28,0.14,0.53,0.28,0.73c0.15,0.2,0.33,0.36,0.57,0.47c0.23,0.11,0.5,0.17,0.8,0.17
			c0.41,0,0.78-0.08,1.1-0.23c0.32-0.15,0.62-0.35,0.9-0.6l-0.31-0.37c-0.23,0.19-0.46,0.34-0.71,0.45
			c-0.24,0.11-0.52,0.17-0.82,0.17c-0.19,0-0.36-0.03-0.52-0.1c-0.16-0.07-0.29-0.16-0.39-0.29c-0.11-0.13-0.18-0.28-0.22-0.47
			C160.19,64.95,160.19,64.74,160.23,64.5z M157.22,64.71c0.08-0.33,0.2-0.62,0.36-0.87c0.15-0.25,0.33-0.47,0.53-0.64
			c0.2-0.17,0.42-0.3,0.65-0.38c0.23-0.09,0.46-0.13,0.7-0.13h0.05l0.18-0.71c-0.21-0.01-0.4,0.02-0.6,0.08
			c-0.19,0.06-0.38,0.14-0.56,0.25c-0.18,0.11-0.35,0.24-0.5,0.4c-0.16,0.15-0.3,0.32-0.42,0.5l0.3-1.15h-0.65l-1.14,4.41h0.65
			L157.22,64.71z M154.62,66.46l1.14-4.41h-0.65l-1.14,4.41H154.62z M156.06,61.09l0.19-0.73h-0.74l-0.19,0.73H156.06z
			 M152.63,64.26c-0.07,0.27-0.17,0.5-0.31,0.72c-0.14,0.21-0.29,0.39-0.46,0.54c-0.17,0.14-0.36,0.25-0.57,0.33
			c-0.21,0.08-0.41,0.12-0.62,0.12c-0.2,0-0.38-0.04-0.55-0.12c-0.17-0.08-0.3-0.2-0.42-0.34c-0.11-0.15-0.18-0.33-0.21-0.54
			c-0.03-0.21-0.02-0.45,0.05-0.7c0.07-0.25,0.17-0.49,0.31-0.7c0.14-0.21,0.3-0.39,0.49-0.53c0.19-0.15,0.38-0.26,0.59-0.34
			c0.21-0.08,0.41-0.12,0.61-0.12c0.21,0,0.39,0.04,0.56,0.12c0.16,0.08,0.3,0.19,0.4,0.34c0.1,0.15,0.17,0.33,0.19,0.54
			C152.72,63.77,152.7,64,152.63,64.26z M153.3,64.25c0.09-0.36,0.12-0.69,0.07-0.97c-0.04-0.28-0.14-0.52-0.28-0.72
			c-0.15-0.2-0.33-0.35-0.55-0.45c-0.22-0.1-0.46-0.15-0.72-0.15c-0.2,0-0.39,0.03-0.57,0.08c-0.18,0.05-0.35,0.13-0.5,0.21
			c-0.16,0.09-0.31,0.19-0.44,0.31c-0.14,0.12-0.27,0.24-0.39,0.38l0.23-0.89h-0.65L148,67.83h0.65l0.57-2.21
			c0.05,0.13,0.12,0.24,0.2,0.36c0.08,0.11,0.18,0.21,0.29,0.3c0.11,0.09,0.25,0.15,0.4,0.2c0.15,0.05,0.33,0.08,0.53,0.08
			c0.26,0,0.53-0.05,0.81-0.16c0.28-0.11,0.54-0.26,0.78-0.45c0.24-0.2,0.46-0.44,0.65-0.72C153.06,64.94,153.2,64.62,153.3,64.25z
			 M147.47,65.23l0-0.02c0.05-0.2,0.05-0.37,0.01-0.5c-0.05-0.14-0.12-0.25-0.23-0.35c-0.11-0.1-0.24-0.18-0.39-0.24
			c-0.15-0.06-0.3-0.12-0.45-0.17c-0.13-0.05-0.26-0.09-0.38-0.14c-0.12-0.05-0.23-0.1-0.32-0.15c-0.09-0.06-0.15-0.12-0.2-0.2
			c-0.04-0.08-0.05-0.17-0.02-0.27l0-0.02c0.05-0.18,0.16-0.33,0.34-0.46c0.18-0.12,0.4-0.18,0.66-0.18c0.21,0,0.42,0.04,0.62,0.12
			c0.2,0.08,0.39,0.18,0.55,0.31l0.42-0.5c-0.19-0.15-0.4-0.27-0.66-0.35c-0.25-0.09-0.51-0.13-0.78-0.13
			c-0.21,0-0.42,0.03-0.61,0.09c-0.2,0.06-0.38,0.15-0.54,0.26c-0.16,0.11-0.3,0.24-0.41,0.4c-0.11,0.16-0.19,0.33-0.24,0.52l0,0.02
			c-0.05,0.2-0.05,0.38,0,0.51c0.05,0.14,0.13,0.25,0.25,0.34c0.11,0.09,0.25,0.17,0.4,0.23c0.16,0.06,0.31,0.12,0.46,0.17
			c0.13,0.04,0.25,0.08,0.37,0.13c0.12,0.05,0.22,0.1,0.31,0.16c0.09,0.06,0.15,0.13,0.19,0.21c0.04,0.08,0.04,0.17,0.02,0.28
			l0,0.02c-0.06,0.22-0.18,0.39-0.38,0.51c-0.2,0.13-0.43,0.19-0.69,0.19c-0.26,0-0.5-0.05-0.73-0.15c-0.23-0.1-0.44-0.24-0.63-0.42
			l-0.45,0.47c0.19,0.2,0.44,0.36,0.72,0.47c0.29,0.12,0.59,0.18,0.9,0.18c0.22,0,0.43-0.03,0.63-0.09c0.2-0.06,0.39-0.15,0.55-0.26
			c0.17-0.11,0.31-0.25,0.43-0.41C147.33,65.62,147.42,65.44,147.47,65.23z M140.31,63.94c0.05-0.2,0.13-0.39,0.24-0.56
			c0.11-0.17,0.24-0.32,0.39-0.44c0.15-0.12,0.31-0.22,0.49-0.28c0.18-0.07,0.36-0.1,0.54-0.1c0.39,0,0.65,0.12,0.8,0.36
			c0.15,0.24,0.17,0.56,0.06,0.97l-0.66,2.58h0.65l0.7-2.74c0.07-0.26,0.09-0.5,0.07-0.72c-0.02-0.22-0.08-0.4-0.18-0.56
			c-0.1-0.16-0.24-0.28-0.43-0.36c-0.18-0.09-0.4-0.13-0.67-0.13c-0.37,0-0.7,0.08-0.98,0.25c-0.28,0.17-0.52,0.37-0.73,0.61
			l0.2-0.77h-0.65l-1.14,4.41h0.65L140.31,63.94z M137.51,66.46l1.14-4.41H138l-1.14,4.41H137.51z M138.94,61.09l0.19-0.73h-0.74
			l-0.19,0.73H138.94z M133.44,63.46c0.04-0.15,0.05-0.3,0.02-0.44c-0.02-0.14-0.07-0.25-0.14-0.35c-0.07-0.1-0.17-0.18-0.29-0.24
			c-0.12-0.06-0.25-0.09-0.4-0.09c-0.15,0-0.3,0.03-0.45,0.09c-0.15,0.06-0.29,0.14-0.41,0.24c-0.12,0.1-0.23,0.22-0.33,0.35
			c-0.09,0.14-0.16,0.28-0.2,0.44c-0.04,0.15-0.05,0.3-0.02,0.44c0.02,0.14,0.07,0.25,0.14,0.35c0.07,0.1,0.17,0.18,0.29,0.24
			c0.12,0.06,0.25,0.09,0.4,0.09s0.3-0.03,0.45-0.09c0.15-0.06,0.29-0.14,0.41-0.24c0.12-0.1,0.23-0.22,0.33-0.35
			C133.33,63.76,133.4,63.61,133.44,63.46z M126.24,62.63h1.37l0.15-0.58h-1.37l0.34-1.33h-0.65l-0.34,1.33h-0.6l-0.15,0.58h0.6
			l-0.69,2.66c-0.06,0.22-0.08,0.41-0.05,0.57c0.02,0.16,0.07,0.29,0.16,0.39c0.08,0.1,0.19,0.17,0.33,0.22
			c0.14,0.05,0.3,0.07,0.47,0.07c0.16,0,0.3-0.02,0.44-0.05c0.13-0.03,0.26-0.08,0.39-0.14l0.15-0.56c-0.13,0.06-0.24,0.1-0.35,0.12
			c-0.1,0.02-0.21,0.03-0.32,0.03c-0.22,0-0.38-0.05-0.49-0.16c-0.11-0.11-0.12-0.3-0.05-0.57L126.24,62.63z M120.51,63.94
			c0.05-0.2,0.13-0.39,0.24-0.56c0.11-0.17,0.24-0.32,0.39-0.44c0.15-0.12,0.31-0.22,0.49-0.28c0.18-0.07,0.36-0.1,0.54-0.1
			c0.39,0,0.65,0.12,0.8,0.36c0.15,0.24,0.17,0.56,0.06,0.97l-0.66,2.58h0.65l0.7-2.74c0.07-0.26,0.09-0.5,0.07-0.72
			c-0.02-0.22-0.08-0.4-0.18-0.56c-0.1-0.16-0.24-0.28-0.43-0.36c-0.18-0.09-0.4-0.13-0.67-0.13c-0.37,0-0.7,0.08-0.98,0.25
			c-0.28,0.17-0.52,0.37-0.73,0.61l0.2-0.77h-0.65l-1.14,4.41h0.65L120.51,63.94z M115.28,64.01c0.08-0.22,0.18-0.42,0.3-0.6
			c0.13-0.18,0.27-0.34,0.42-0.47c0.16-0.13,0.33-0.24,0.51-0.32c0.18-0.08,0.37-0.12,0.56-0.12c0.22,0,0.4,0.04,0.54,0.12
			c0.14,0.08,0.25,0.19,0.33,0.33c0.08,0.14,0.13,0.3,0.14,0.48c0.02,0.18,0.01,0.37-0.03,0.57H115.28z M115.15,64.5h3.43
			c0.02-0.04,0.03-0.08,0.04-0.11c0.01-0.03,0.02-0.07,0.02-0.09c0.08-0.32,0.12-0.63,0.1-0.91c-0.02-0.28-0.08-0.53-0.2-0.74
			c-0.12-0.21-0.29-0.38-0.51-0.5c-0.22-0.12-0.49-0.18-0.81-0.18c-0.3,0-0.6,0.06-0.88,0.18c-0.29,0.12-0.55,0.28-0.78,0.49
			c-0.24,0.21-0.44,0.45-0.62,0.73c-0.18,0.28-0.3,0.58-0.39,0.9c-0.09,0.34-0.11,0.65-0.07,0.94c0.04,0.28,0.14,0.53,0.28,0.73
			c0.15,0.2,0.33,0.36,0.57,0.47c0.23,0.11,0.5,0.17,0.8,0.17c0.41,0,0.78-0.08,1.1-0.23c0.32-0.15,0.62-0.35,0.9-0.6l-0.31-0.37
			c-0.23,0.19-0.46,0.34-0.71,0.45c-0.24,0.11-0.52,0.17-0.82,0.17c-0.19,0-0.36-0.03-0.52-0.1c-0.16-0.07-0.29-0.16-0.39-0.29
			c-0.11-0.13-0.18-0.28-0.22-0.47C115.11,64.95,115.11,64.74,115.15,64.5z M110.65,62.84c-0.05-0.25-0.17-0.46-0.36-0.63
			c-0.19-0.17-0.46-0.25-0.81-0.25c-0.18,0-0.35,0.02-0.5,0.07c-0.15,0.05-0.29,0.11-0.42,0.18c-0.13,0.08-0.25,0.17-0.37,0.27
			c-0.11,0.1-0.22,0.21-0.32,0.32l0.19-0.74h-0.65l-1.14,4.41h0.65l0.65-2.52c0.05-0.2,0.13-0.39,0.24-0.56
			c0.1-0.17,0.23-0.31,0.37-0.44c0.14-0.13,0.29-0.22,0.46-0.29c0.16-0.07,0.33-0.1,0.5-0.1c0.35,0,0.59,0.12,0.73,0.35
			c0.14,0.23,0.16,0.55,0.05,0.97l-0.67,2.6h0.64l0.65-2.54c0.06-0.22,0.14-0.41,0.25-0.58c0.11-0.17,0.23-0.31,0.37-0.43
			c0.14-0.12,0.29-0.2,0.45-0.26c0.16-0.06,0.32-0.09,0.48-0.09c0.35,0,0.6,0.12,0.74,0.35c0.14,0.23,0.15,0.56,0.04,0.99
			l-0.66,2.58h0.65l0.7-2.73c0.14-0.55,0.11-0.99-0.09-1.3c-0.2-0.32-0.56-0.47-1.06-0.47c-0.19,0-0.37,0.02-0.53,0.07
			c-0.17,0.05-0.32,0.11-0.46,0.19c-0.14,0.08-0.28,0.17-0.4,0.28C110.88,62.6,110.76,62.72,110.65,62.84z M102.34,64.01
			c0.08-0.22,0.18-0.42,0.3-0.6c0.13-0.18,0.27-0.34,0.42-0.47c0.16-0.13,0.33-0.24,0.51-0.32c0.18-0.08,0.37-0.12,0.56-0.12
			c0.22,0,0.4,0.04,0.54,0.12c0.14,0.08,0.25,0.19,0.33,0.33c0.08,0.14,0.13,0.3,0.14,0.48c0.02,0.18,0.01,0.37-0.03,0.57H102.34z
			 M102.22,64.5h3.43c0.02-0.04,0.03-0.08,0.04-0.11c0.01-0.03,0.02-0.07,0.02-0.09c0.08-0.32,0.12-0.63,0.1-0.91
			c-0.02-0.28-0.08-0.53-0.2-0.74c-0.12-0.21-0.29-0.38-0.51-0.5c-0.22-0.12-0.49-0.18-0.81-0.18c-0.3,0-0.6,0.06-0.88,0.18
			c-0.29,0.12-0.55,0.28-0.78,0.49c-0.24,0.21-0.44,0.45-0.62,0.73c-0.18,0.28-0.3,0.58-0.39,0.9c-0.09,0.34-0.11,0.65-0.07,0.94
			c0.04,0.28,0.14,0.53,0.28,0.73c0.15,0.2,0.33,0.36,0.57,0.47c0.23,0.11,0.5,0.17,0.8,0.17c0.41,0,0.78-0.08,1.1-0.23
			c0.32-0.15,0.62-0.35,0.9-0.6l-0.31-0.37c-0.23,0.19-0.46,0.34-0.71,0.45c-0.24,0.11-0.52,0.17-0.82,0.17
			c-0.19,0-0.36-0.03-0.52-0.1c-0.16-0.07-0.29-0.16-0.39-0.29c-0.11-0.13-0.18-0.28-0.22-0.47
			C102.18,64.95,102.18,64.74,102.22,64.5z M99.82,66.46l1.6-6.23h-0.65l-1.6,6.23H99.82z M97.83,64.26
			c-0.07,0.27-0.17,0.5-0.31,0.72c-0.14,0.21-0.29,0.39-0.46,0.54c-0.17,0.14-0.36,0.25-0.57,0.33c-0.21,0.08-0.41,0.12-0.62,0.12
			c-0.2,0-0.38-0.04-0.55-0.12c-0.17-0.08-0.3-0.2-0.41-0.34c-0.11-0.15-0.18-0.33-0.21-0.54c-0.03-0.21-0.02-0.45,0.05-0.7
			c0.07-0.25,0.17-0.49,0.31-0.7c0.14-0.21,0.3-0.39,0.49-0.53c0.19-0.15,0.38-0.26,0.59-0.34c0.21-0.08,0.41-0.12,0.61-0.12
			c0.21,0,0.39,0.04,0.56,0.12c0.16,0.08,0.3,0.19,0.4,0.34c0.1,0.15,0.17,0.33,0.19,0.54C97.91,63.77,97.89,64,97.83,64.26z
			 M98.49,64.25c0.09-0.36,0.12-0.69,0.07-0.97c-0.04-0.28-0.14-0.52-0.28-0.72c-0.15-0.2-0.33-0.35-0.55-0.45
			c-0.22-0.1-0.46-0.15-0.72-0.15c-0.2,0-0.39,0.03-0.57,0.08c-0.18,0.05-0.35,0.13-0.5,0.21c-0.16,0.09-0.31,0.19-0.44,0.31
			c-0.14,0.12-0.27,0.24-0.39,0.38l0.23-0.89h-0.65l-1.49,5.78h0.65l0.57-2.21c0.05,0.13,0.12,0.24,0.2,0.36
			c0.08,0.11,0.18,0.21,0.29,0.3c0.11,0.09,0.25,0.15,0.4,0.2c0.15,0.05,0.33,0.08,0.53,0.08c0.26,0,0.53-0.05,0.81-0.16
			c0.28-0.11,0.54-0.26,0.78-0.45c0.24-0.2,0.46-0.44,0.65-0.72C98.25,64.94,98.4,64.62,98.49,64.25z M89.94,62.84
			c-0.05-0.25-0.17-0.46-0.36-0.63c-0.19-0.17-0.45-0.25-0.81-0.25c-0.18,0-0.35,0.02-0.5,0.07c-0.15,0.05-0.29,0.11-0.42,0.18
			c-0.13,0.08-0.25,0.17-0.37,0.27c-0.11,0.1-0.22,0.21-0.32,0.32l0.19-0.74h-0.65l-1.14,4.41h0.65l0.65-2.52
			c0.05-0.2,0.13-0.39,0.24-0.56c0.1-0.17,0.23-0.31,0.37-0.44c0.14-0.13,0.29-0.22,0.46-0.29c0.16-0.07,0.33-0.1,0.5-0.1
			c0.35,0,0.59,0.12,0.73,0.35c0.14,0.23,0.16,0.55,0.05,0.97l-0.67,2.6h0.64l0.65-2.54c0.06-0.22,0.14-0.41,0.25-0.58
			c0.11-0.17,0.23-0.31,0.37-0.43c0.14-0.12,0.29-0.2,0.45-0.26c0.16-0.06,0.32-0.09,0.48-0.09c0.35,0,0.6,0.12,0.74,0.35
			c0.14,0.23,0.15,0.56,0.04,0.99l-0.66,2.58h0.65l0.7-2.73c0.14-0.55,0.11-0.99-0.09-1.3c-0.2-0.32-0.56-0.47-1.06-0.47
			c-0.19,0-0.37,0.02-0.53,0.07c-0.17,0.05-0.32,0.11-0.46,0.19c-0.14,0.08-0.28,0.17-0.4,0.28C90.17,62.6,90.05,62.72,89.94,62.84z
			 M84.07,66.46l1.14-4.41h-0.65l-1.14,4.41H84.07z M85.5,61.09l0.19-0.73h-0.74l-0.19,0.73H85.5z M80,63.46
			c0.04-0.15,0.05-0.3,0.02-0.44c-0.02-0.14-0.07-0.25-0.14-0.35c-0.07-0.1-0.17-0.18-0.29-0.24c-0.12-0.06-0.25-0.09-0.4-0.09
			s-0.3,0.03-0.45,0.09c-0.15,0.06-0.29,0.14-0.41,0.24c-0.12,0.1-0.23,0.22-0.33,0.35c-0.09,0.14-0.16,0.28-0.2,0.44
			c-0.04,0.15-0.05,0.3-0.02,0.44c0.02,0.14,0.07,0.25,0.14,0.35c0.07,0.1,0.17,0.18,0.29,0.24c0.12,0.06,0.25,0.09,0.4,0.09
			c0.15,0,0.3-0.03,0.45-0.09c0.15-0.06,0.29-0.14,0.41-0.24c0.12-0.1,0.23-0.22,0.33-0.35C79.89,63.76,79.96,63.61,80,63.46z
			 M70.39,64.01c0.08-0.22,0.18-0.42,0.3-0.6c0.13-0.18,0.27-0.34,0.42-0.47c0.16-0.13,0.33-0.24,0.51-0.32
			c0.18-0.08,0.37-0.12,0.56-0.12c0.22,0,0.4,0.04,0.54,0.12c0.14,0.08,0.25,0.19,0.33,0.33c0.08,0.14,0.13,0.3,0.14,0.48
			c0.02,0.18,0.01,0.37-0.03,0.57H70.39z M70.26,64.5h3.43c0.02-0.04,0.03-0.08,0.04-0.11c0.01-0.03,0.02-0.07,0.02-0.09
			c0.08-0.32,0.12-0.63,0.1-0.91c-0.02-0.28-0.08-0.53-0.2-0.74c-0.12-0.21-0.29-0.38-0.51-0.5c-0.22-0.12-0.49-0.18-0.81-0.18
			c-0.3,0-0.6,0.06-0.88,0.18c-0.29,0.12-0.55,0.28-0.78,0.49c-0.24,0.21-0.44,0.45-0.62,0.73c-0.18,0.28-0.3,0.58-0.39,0.9
			c-0.09,0.34-0.11,0.65-0.07,0.94c0.04,0.28,0.14,0.53,0.28,0.73c0.15,0.2,0.33,0.36,0.57,0.47c0.23,0.11,0.5,0.17,0.8,0.17
			c0.41,0,0.78-0.08,1.1-0.23c0.32-0.15,0.62-0.35,0.9-0.6l-0.31-0.37c-0.23,0.19-0.46,0.34-0.71,0.45
			C71.98,65.94,71.71,66,71.41,66c-0.19,0-0.36-0.03-0.52-0.1c-0.16-0.07-0.29-0.16-0.39-0.29c-0.11-0.13-0.18-0.28-0.22-0.47
			C70.23,64.95,70.23,64.74,70.26,64.5z M67.96,62.63h1.37l0.15-0.58h-1.37l0.34-1.33h-0.65l-0.34,1.33h-0.6l-0.15,0.58h0.6
			l-0.69,2.66c-0.06,0.22-0.08,0.41-0.05,0.57c0.02,0.16,0.07,0.29,0.16,0.39c0.08,0.1,0.19,0.17,0.33,0.22
			c0.14,0.05,0.3,0.07,0.47,0.07c0.16,0,0.3-0.02,0.44-0.05c0.13-0.03,0.26-0.08,0.39-0.14l0.14-0.56c-0.13,0.06-0.24,0.1-0.35,0.12
			c-0.1,0.02-0.21,0.03-0.32,0.03c-0.22,0-0.38-0.05-0.49-0.16c-0.11-0.11-0.12-0.3-0.05-0.57L67.96,62.63z M63.46,64.23
			c0.27,0,0.5,0.02,0.7,0.06c0.2,0.04,0.37,0.08,0.52,0.13l-0.11,0.43c-0.05,0.18-0.12,0.34-0.24,0.48
			c-0.11,0.15-0.25,0.27-0.41,0.38c-0.16,0.11-0.33,0.19-0.52,0.25c-0.19,0.06-0.39,0.09-0.59,0.09c-0.14,0-0.28-0.02-0.4-0.06
			c-0.12-0.04-0.22-0.1-0.3-0.17c-0.08-0.08-0.14-0.17-0.17-0.28c-0.03-0.11-0.03-0.23,0.01-0.38c0.07-0.28,0.24-0.51,0.5-0.67
			C62.72,64.31,63.06,64.23,63.46,64.23z M63.86,62.57c0.41,0,0.7,0.1,0.87,0.3c0.17,0.2,0.21,0.5,0.11,0.9l-0.04,0.15
			c-0.18-0.06-0.37-0.1-0.57-0.14c-0.2-0.03-0.44-0.05-0.72-0.05c-0.27,0-0.53,0.03-0.77,0.09c-0.24,0.06-0.46,0.15-0.66,0.27
			c-0.2,0.12-0.36,0.27-0.5,0.45c-0.14,0.18-0.23,0.39-0.29,0.62c-0.06,0.23-0.07,0.44-0.02,0.61c0.05,0.17,0.13,0.31,0.26,0.43
			c0.12,0.12,0.27,0.2,0.45,0.26c0.18,0.06,0.37,0.09,0.57,0.09c0.39,0,0.73-0.08,1.02-0.23c0.29-0.15,0.54-0.33,0.74-0.53
			l-0.17,0.67h0.62l0.69-2.7c0.15-0.59,0.11-1.03-0.14-1.33c-0.24-0.3-0.66-0.45-1.25-0.45c-0.32,0-0.61,0.03-0.87,0.1
			c-0.26,0.07-0.53,0.16-0.8,0.27l0.05,0.54c0.23-0.1,0.45-0.17,0.68-0.23C63.36,62.6,63.6,62.57,63.86,62.57z M58.52,65.71
			L58,62.05h-0.71l0.73,4.45h0.57l3.03-4.45h-0.7L58.52,65.71z M55.57,64.27c-0.06,0.24-0.16,0.46-0.29,0.67
			c-0.13,0.21-0.29,0.39-0.47,0.54c-0.18,0.15-0.38,0.27-0.6,0.36c-0.22,0.09-0.44,0.13-0.68,0.13c-0.23,0-0.43-0.05-0.6-0.14
			c-0.17-0.09-0.31-0.21-0.41-0.37c-0.1-0.15-0.17-0.34-0.2-0.54c-0.03-0.21-0.01-0.43,0.05-0.67c0.06-0.24,0.16-0.46,0.29-0.67
			c0.13-0.21,0.29-0.39,0.46-0.54c0.18-0.16,0.37-0.28,0.59-0.37c0.22-0.09,0.44-0.13,0.68-0.13c0.23,0,0.43,0.05,0.6,0.14
			c0.17,0.09,0.31,0.21,0.42,0.37c0.11,0.16,0.17,0.34,0.2,0.55C55.65,63.8,55.63,64.03,55.57,64.27z M56.24,64.25
			c0.08-0.31,0.1-0.61,0.06-0.89c-0.04-0.28-0.13-0.52-0.28-0.73c-0.15-0.21-0.34-0.37-0.59-0.5c-0.25-0.12-0.53-0.18-0.85-0.18
			c-0.33,0-0.65,0.06-0.96,0.18c-0.31,0.12-0.59,0.29-0.85,0.5c-0.26,0.21-0.48,0.46-0.66,0.74c-0.18,0.28-0.32,0.58-0.4,0.89
			c-0.08,0.31-0.1,0.61-0.06,0.89c0.04,0.28,0.13,0.52,0.28,0.73c0.15,0.21,0.34,0.37,0.59,0.5c0.24,0.12,0.53,0.18,0.85,0.18
			c0.32,0,0.64-0.06,0.95-0.18c0.31-0.12,0.59-0.29,0.85-0.5c0.26-0.21,0.48-0.46,0.66-0.74C56.02,64.86,56.15,64.57,56.24,64.25z
			 M47.55,63.94c0.05-0.2,0.13-0.39,0.24-0.56c0.11-0.17,0.24-0.32,0.39-0.44c0.15-0.12,0.31-0.22,0.49-0.28
			c0.18-0.07,0.36-0.1,0.54-0.1c0.39,0,0.65,0.12,0.8,0.36c0.15,0.24,0.17,0.56,0.06,0.97l-0.66,2.58h0.65l0.7-2.74
			c0.07-0.26,0.09-0.5,0.07-0.72c-0.02-0.22-0.08-0.4-0.18-0.56c-0.1-0.16-0.24-0.28-0.43-0.36c-0.18-0.09-0.4-0.13-0.67-0.13
			c-0.37,0-0.7,0.08-0.98,0.25c-0.28,0.17-0.52,0.37-0.73,0.61l0.2-0.77h-0.65l-1.14,4.41h0.65L47.55,63.94z M42.38,63.94
			c0.05-0.2,0.13-0.39,0.24-0.56c0.11-0.17,0.24-0.32,0.39-0.44c0.15-0.12,0.31-0.22,0.49-0.28c0.18-0.07,0.36-0.1,0.54-0.1
			c0.39,0,0.65,0.12,0.8,0.36c0.15,0.24,0.17,0.56,0.06,0.97l-0.66,2.58h0.65l0.7-2.74c0.07-0.26,0.09-0.5,0.07-0.72
			c-0.02-0.22-0.08-0.4-0.18-0.56c-0.1-0.16-0.24-0.28-0.43-0.36c-0.18-0.09-0.4-0.13-0.67-0.13c-0.37,0-0.7,0.08-0.98,0.25
			c-0.28,0.17-0.52,0.37-0.73,0.61l0.2-0.77h-0.65l-1.14,4.41h0.65L42.38,63.94z M40.35,60.49l-1.54,5.98h0.66l1.54-5.98H40.35z"/>
	</g>
</g>
</svg>
